<?xml version="1.0" encoding="utf-8"?>
<!-- Generator: Adobe Illustrator 27.2.0, SVG Export Plug-In . SVG Version: 6.00 Build 0)  -->
<svg version="1.1" id="V_x5F_Colour_x5F_8pt" xmlns="http://www.w3.org/2000/svg" xmlns:xlink="http://www.w3.org/1999/xlink"
	 x="0px" y="0px" viewBox="0 0 200 200" style="enable-background:new 0 0 200 200;" xml:space="preserve">
<style type="text/css">
	.st0{clip-path:url(#SVGID_00000091736864053910064200000004954829616558193554_);}
	.st1{fill:#A3AB30;}
	.st2{fill:#85AB30;}
	.st3{fill:#7EA186;}
	.st4{fill:#829699;}
	.st5{fill:#A0829B;}
	.st6{fill:#B47399;}
	.st7{fill:#B86E41;}
	.st8{fill:#8BB434;}
	.st9{fill:#65B434;}
	.st10{fill:#5CAB89;}
	.st11{fill:#61A09B;}
	.st12{fill:#878F9D;}
	.st13{fill:#9F819B;}
	.st14{fill:#A47C45;}
	.st15{fill:#66B434;}
	.st16{fill:#35B434;}
	.st17{fill:#2BAB89;}
	.st18{fill:#31A09B;}
	.st19{fill:#608F9D;}
	.st20{fill:#7F819B;}
	.st21{fill:#857C45;}
	.st22{fill:#5FB676;}
	.st23{fill:#2EB676;}
	.st24{fill:#22ADB1;}
	.st25{fill:#29A2BD;}
	.st26{fill:#5990BF;}
	.st27{fill:#7983BD;}
	.st28{fill:#807F82;}
	.st29{fill:#5DAC89;}
	.st30{fill:#2BAC89;}
	.st31{fill:#20A3BC;}
	.st32{fill:#2697C7;}
	.st33{fill:#5783C8;}
	.st34{fill:#7774C7;}
	.st35{fill:#7E6F94;}
	.st36{fill:#758084;}
	.st37{fill:#498084;}
	.st38{fill:#3E73B9;}
	.st39{fill:#4560C4;}
	.st40{fill:#7145C5;}
	.st41{fill:#8C30C4;}
	.st42{fill:#912A8F;}
	.st43{fill:#A08068;}
	.st44{fill:#808068;}
	.st45{fill:#7973A9;}
	.st46{fill:#7D60B7;}
	.st47{fill:#9D45B8;}
	.st48{fill:#B030B7;}
	.st49{fill:#B52A75;}
	.st50{fill:#A37D45;}
	.st51{fill:#857D45;}
	.st52{fill:#7E7094;}
	.st53{fill:#825DA4;}
	.st54{fill:#A041A6;}
	.st55{fill:#B42CA4;}
	.st56{fill:#B82554;}
	.st57{fill:#FFFFFF;}
</style>
<g>
	<defs>
		<path id="SVGID_1_" d="M192,200H8c-4.4,0-8-3.6-8-8V8c0-4.4,3.6-8,8-8h184c4.4,0,8,3.6,8,8v184C200,196.4,196.4,200,192,200z"/>
	</defs>
	<clipPath id="SVGID_00000181808219660072497930000011341402126142268604_">
		<use xlink:href="#SVGID_1_"  style="overflow:visible;"/>
	</clipPath>
	<g style="clip-path:url(#SVGID_00000181808219660072497930000011341402126142268604_);">
		<polygon class="st1" points="195.6,-16.3 246.1,-22.3 215.4,-62.8 164.8,-56.9 		"/>
		<polygon class="st2" points="276.8,18.3 246.1,-22.3 195.6,-16.3 226.3,24.3 		"/>
		<polygon class="st3" points="257.1,64.8 307.6,58.8 276.8,18.3 226.3,24.3 		"/>
		<polygon class="st4" points="287.8,105.4 338.3,99.4 307.6,58.8 257.1,64.8 		"/>
		<polygon class="st5" points="318.5,145.9 369.1,140 338.3,99.4 287.8,105.4 		"/>
		<polygon class="st6" points="349.3,186.5 399.8,180.5 369.1,140 318.5,145.9 		"/>
		<polygon class="st7" points="349.3,186.5 380,227 430.5,221.1 399.8,180.5 		"/>
		<polygon class="st8" points="195.6,-16.3 164.8,-56.9 114.3,-50.9 145,-10.3 		"/>
		<polygon class="st9" points="175.8,30.2 226.3,24.3 195.6,-16.3 145,-10.3 		"/>
		<polygon class="st10" points="257.1,64.8 226.3,24.3 175.8,30.2 206.5,70.8 		"/>
		<polygon class="st11" points="237.3,111.3 287.8,105.4 257.1,64.8 206.5,70.8 		"/>
		<polygon class="st12" points="268,151.9 318.5,145.9 287.8,105.4 237.3,111.3 		"/>
		<polygon class="st13" points="268,151.9 298.7,192.4 349.3,186.5 318.5,145.9 		"/>
		<polygon class="st14" points="298.7,192.4 329.5,233 380,227 349.3,186.5 		"/>
		<polygon class="st15" points="145,-10.3 114.3,-50.9 63.8,-44.9 94.5,-4.4 		"/>
		<polygon class="st16" points="175.8,30.2 145,-10.3 94.5,-4.4 125.2,36.2 		"/>
		<polygon class="st17" points="156,76.7 206.5,70.8 175.8,30.2 125.2,36.2 		"/>
		<polygon class="st18" points="237.3,111.3 206.5,70.8 156,76.7 186.7,117.3 		"/>
		<polygon class="st19" points="186.7,117.3 217.5,157.8 268,151.9 237.3,111.3 		"/>
		<polygon class="st20" points="217.5,157.8 248.2,198.4 298.7,192.4 268,151.9 		"/>
		<polygon class="st21" points="248.2,198.4 278.9,238.9 329.5,233 298.7,192.4 		"/>
		<polygon class="st22" points="94.5,-4.4 63.8,-44.9 13.2,-39 44,1.6 		"/>
		<polygon class="st23" points="125.2,36.2 94.5,-4.4 44,1.6 74.7,42.1 		"/>
		<polygon class="st24" points="156,76.7 125.2,36.2 74.7,42.1 105.4,82.7 		"/>
		<polygon class="st25" points="136.2,123.2 186.7,117.3 156,76.7 105.4,82.7 		"/>
		<polygon class="st26" points="136.2,123.2 166.9,163.8 217.5,157.8 186.7,117.3 		"/>
		<polygon class="st27" points="166.9,163.8 197.7,204.3 248.2,198.4 217.5,157.8 		"/>
		<polygon class="st28" points="197.7,204.3 228.4,244.9 278.9,238.9 248.2,198.4 		"/>
		<polygon class="st29" points="44,1.6 13.2,-39 -37.3,-33 -6.6,7.5 		"/>
		<polygon class="st30" points="74.7,42.1 44,1.6 -6.6,7.5 24.2,48.1 		"/>
		<polygon class="st31" points="74.7,42.1 24.2,48.1 54.9,88.6 105.4,82.7 		"/>
		<polygon class="st32" points="105.4,82.7 54.9,88.6 85.6,129.2 136.2,123.2 		"/>
		<polygon class="st33" points="85.6,129.2 116.4,169.8 166.9,163.8 136.2,123.2 		"/>
		<polygon class="st34" points="116.4,169.8 147.1,210.3 197.7,204.3 166.9,163.8 		"/>
		<polygon class="st35" points="147.1,210.3 177.9,250.9 228.4,244.9 197.7,204.3 		"/>
		<polygon class="st36" points="-6.6,7.5 -37.3,-33 -87.9,-27.1 -57.1,13.5 		"/>
		<polygon class="st37" points="-6.6,7.5 -57.1,13.5 -26.4,54.1 24.2,48.1 		"/>
		<polygon class="st38" points="54.9,88.6 24.2,48.1 -26.4,54.1 4.4,94.6 		"/>
		<polygon class="st39" points="4.4,94.6 35.1,135.2 85.6,129.2 54.9,88.6 		"/>
		<polygon class="st40" points="85.6,129.2 35.1,135.2 65.8,175.7 116.4,169.8 		"/>
		<polygon class="st41" points="65.8,175.7 96.6,216.3 147.1,210.3 116.4,169.8 		"/>
		<polygon class="st42" points="96.6,216.3 127.3,256.8 177.9,250.9 147.1,210.3 		"/>
		<polygon class="st43" points="-87.9,-27.1 -138.4,-21.1 -107.7,19.5 -57.1,13.5 		"/>
		<polygon class="st44" points="-26.4,54.1 -57.1,13.5 -107.7,19.5 -76.9,60 		"/>
		<polygon class="st45" points="-26.4,54.1 -76.9,60 -46.2,100.6 4.4,94.6 		"/>
		<polygon class="st46" points="4.4,94.6 -46.2,100.6 -15.4,141.1 35.1,135.2 		"/>
		<polygon class="st47" points="-15.4,141.1 15.3,181.7 65.8,175.7 35.1,135.2 		"/>
		<polygon class="st48" points="65.8,175.7 15.3,181.7 46,222.2 96.6,216.3 		"/>
		<polygon class="st49" points="46,222.2 76.8,262.8 127.3,256.8 96.6,216.3 		"/>
		<polygon class="st50" points="-107.7,19.5 -138.4,-21.1 -188.9,-15.1 -158.2,25.4 		"/>
		<polygon class="st51" points="-107.7,19.5 -158.2,25.4 -127.4,66 -76.9,60 		"/>
		<polygon class="st52" points="-76.9,60 -127.4,66 -96.7,106.5 -46.2,100.6 		"/>
		<polygon class="st53" points="-46.2,100.6 -96.7,106.5 -66,147.1 -15.4,141.1 		"/>
		<polygon class="st54" points="-15.4,141.1 -66,147.1 -35.2,187.6 15.3,181.7 		"/>
		<polygon class="st55" points="-35.2,187.6 -4.5,228.2 46,222.2 15.3,181.7 		"/>
		<polygon class="st56" points="46,222.2 -4.5,228.2 26.2,268.7 76.8,262.8 		"/>
	</g>
</g>
<polygon class="st57" points="116.3,169.8 24.2,48.2 74.8,42.2 105.4,82.7 125.3,36.2 175.8,30.2 "/>
</svg>
